<svg width="29" height="25" viewBox="0 0 29 25" fill="none" xmlns="http://www.w3.org/2000/svg">
<path d="M14.6483 0C13.689 0 12.8178 0.487295 12.3164 1.3037L0.403237 20.7075C-0.385108 21.992 0.0179938 23.6784 1.30256 24.4668C1.73373 24.7308 2.2274 24.8712 2.73001 24.8712C3.68929 24.8712 4.56055 24.3839 5.06188 23.5675L16.9751 4.16369C17.3578 3.54118 17.4739 2.80768 17.3042 2.09843C17.1345 1.3879 16.6983 0.78707 16.0758 0.404378C15.6459 0.14032 15.1522 0 14.6483 0V0Z" fill="#FF805A"/>
<path d="M20.4102 8.89776C19.4509 8.89776 18.5797 9.38506 18.0784 10.2015L11.6287 20.7064C11.2473 21.3289 11.1299 22.0624 11.2996 22.7716C11.4693 23.4822 11.9055 24.083 12.528 24.4644C12.9592 24.7285 13.4529 24.8688 13.9555 24.8688C14.9148 24.8688 15.786 24.3815 16.2874 23.5651L22.737 13.0602C23.1197 12.4377 23.2358 11.7042 23.0661 10.9949C22.8965 10.2844 22.4602 9.68356 21.8377 9.30086C21.4065 9.03681 20.9141 8.89648 20.4102 8.89648V8.89776Z" fill="#FF805A"/>
<path d="M24.5687 17.6673C25.4731 17.6673 26.2959 18.1278 26.7692 18.8983L27.9288 20.7862C28.6725 21.9981 28.2923 23.5901 27.0805 24.3338C26.6735 24.5838 26.2079 24.7152 25.7334 24.7152C24.8277 24.7152 24.0049 24.2547 23.5316 23.4842L22.3721 21.595C22.0111 21.0082 21.9014 20.3155 22.0621 19.6458C22.2228 18.9761 22.6336 18.4084 23.2216 18.0474C23.6286 17.7974 24.0942 17.666 24.5687 17.666V17.6673Z" fill="#FF805A"/>
</svg>
