<svg width="18" height="20" viewBox="0 0 18 20" fill="none" xmlns="http://www.w3.org/2000/svg">
<path d="M16.7695 9.64534C16.039 8.79229 15.7071 8.05305 15.7071 6.79716V6.37013C15.7071 4.73354 15.3304 3.67907 14.5115 2.62459C13.2493 0.986993 11.1244 0 9.04423 0H8.95577C6.91935 0 4.86106 0.941671 3.577 2.5128C2.71333 3.58842 2.29293 4.68822 2.29293 6.37013V6.79716C2.29293 8.05305 1.98284 8.79229 1.23049 9.64534C0.676907 10.2738 0.5 11.0815 0.5 11.9557C0.5 12.8309 0.787226 13.6598 1.36367 14.3336C2.11602 15.1413 3.17846 15.6569 4.26375 15.7466C5.83505 15.9258 7.40634 15.9933 9.0005 15.9933C10.5937 15.9933 12.165 15.8805 13.7372 15.7466C14.8215 15.6569 15.884 15.1413 16.6363 14.3336C17.2118 13.6598 17.5 12.8309 17.5 11.9557C17.5 11.0815 17.3231 10.2738 16.7695 9.64534Z" fill="#68778D"/>
<path opacity="0.2" d="M11.0078 17.2283C10.5079 17.1215 7.46168 17.1215 6.96177 17.2283C6.53441 17.327 6.07227 17.5566 6.07227 18.0602C6.09711 18.5406 6.37837 18.9646 6.76797 19.2335L6.76697 19.2345C7.27086 19.6273 7.86221 19.877 8.48139 19.9667C8.81135 20.012 9.14727 20.01 9.48916 19.9667C10.1073 19.877 10.6987 19.6273 11.2026 19.2345L11.2016 19.2335C11.5912 18.9646 11.8724 18.5406 11.8973 18.0602C11.8973 17.5566 11.4351 17.327 11.0078 17.2283Z" fill="#68778D"/>
</svg>
