<svg width="24" height="24" viewBox="0 0 24 24" fill="none" xmlns="http://www.w3.org/2000/svg">
<path fill-rule="evenodd" clip-rule="evenodd" d="M20.1431 10.8576H6.902L10.6654 7.09421C11.1123 6.64735 11.1123 5.92507 10.6654 5.47821C10.2186 5.03135 9.49629 5.03135 9.04943 5.47821L3.33514 11.1925C2.88829 11.6394 2.88829 12.3616 3.33514 12.8085L9.04943 18.5228C9.27229 18.7456 9.56486 18.8576 9.85743 18.8576C10.15 18.8576 10.4426 18.7456 10.6654 18.5228C11.1123 18.0759 11.1123 17.3536 10.6654 16.9068L6.902 13.1434H20.1431C20.7751 13.1434 21.286 12.6314 21.286 12.0005C21.286 11.3696 20.7751 10.8576 20.1431 10.8576Z" fill="#68778D"/>
<rect x="12.1428" y="4" width="9.14286" height="2.28571" rx="1.14286" fill="#68778D" fill-opacity="0.52"/>
<rect x="12.1428" y="17.7144" width="9.14286" height="2.28571" rx="1.14286" fill="#68778D" fill-opacity="0.52"/>
</svg>
