<svg width="24" height="24" viewBox="0 0 24 24" fill="none" xmlns="http://www.w3.org/2000/svg">
<path fill-rule="evenodd" clip-rule="evenodd" d="M3.85686 13.1424L17.098 13.1424L13.3346 16.9058C12.8877 17.3526 12.8877 18.0749 13.3346 18.5218C13.7814 18.9686 14.5037 18.9686 14.9506 18.5218L20.6649 12.8075C21.1117 12.3606 21.1117 11.6384 20.6649 11.1915L14.9506 5.47722C14.7277 5.25436 14.4351 5.14236 14.1426 5.14236C13.85 5.14236 13.5574 5.25436 13.3346 5.47722C12.8877 5.92408 12.8877 6.64636 13.3346 7.09322L17.098 10.8566L3.85686 10.8566C3.22486 10.8566 2.714 11.3686 2.714 11.9995C2.714 12.6304 3.22486 13.1424 3.85686 13.1424Z" fill="#68778D"/>
<rect x="11.8572" y="20" width="9.14286" height="2.28571" rx="1.14286" transform="rotate(-180 11.8572 20)" fill="#68778D" fill-opacity="0.52"/>
<rect x="11.8572" y="6.28564" width="9.14286" height="2.28571" rx="1.14286" transform="rotate(-180 11.8572 6.28564)" fill="#68778D" fill-opacity="0.52"/>
</svg>
