<svg width="18" height="16" viewBox="0 0 18 16" fill="none" xmlns="http://www.w3.org/2000/svg">
<path opacity="0.2" d="M7.40307 11.2983H1.92347C1.22995 11.2983 0.666992 11.8514 0.666992 12.5328C0.666992 13.2132 1.22995 13.7672 1.92347 13.7672H7.40307C8.09658 13.7672 8.65954 13.2132 8.65954 12.5328C8.65954 11.8514 8.09658 11.2983 7.40307 11.2983Z" fill="#575267"/>
<path opacity="0.2" d="M17.3334 3.31556C17.3334 2.63512 16.7705 2.08203 16.0779 2.08203H10.5983C9.90476 2.08203 9.3418 2.63512 9.3418 3.31556C9.3418 3.99691 9.90476 4.55 10.5983 4.55H16.0779C16.7705 4.55 17.3334 3.99691 17.3334 3.31556Z" fill="#575267"/>
<path d="M6.39844 3.31547C6.39844 4.87102 5.11604 6.13184 3.53272 6.13184C1.95032 6.13184 0.666992 4.87102 0.666992 3.31547C0.666992 1.76082 1.95032 0.5 3.53272 0.5C5.11604 0.5 6.39844 1.76082 6.39844 3.31547Z" fill="#575267"/>
<path d="M17.334 12.4995C17.334 14.0541 16.0516 15.3149 14.4683 15.3149C12.8859 15.3149 11.6025 14.0541 11.6025 12.4995C11.6025 10.9439 12.8859 9.68311 14.4683 9.68311C16.0516 9.68311 17.334 10.9439 17.334 12.4995Z" fill="#575267"/>
</svg>
