<svg width="21" height="24" viewBox="0 0 21 24" fill="none" xmlns="http://www.w3.org/2000/svg">
<path d="M0 2.25V4.95C0 5.3625 0.3375 5.7 0.75 5.7H3.45C3.8625 5.7 4.2 5.3625 4.2 4.95V2.25C4.2 1.8375 3.8625 1.5 3.45 1.5H0.75C0.3375 1.5 0 1.8375 0 2.25ZM0 7.85156V10.5516C0 10.9641 0.3375 11.3016 0.75 11.3016H3.45C3.8625 11.3016 4.2 10.9641 4.2 10.5516V7.85156C4.2 7.43906 3.8625 7.10156 3.45 7.10156H0.75C0.3375 7.10156 0 7.43906 0 7.85156ZM0.75 12.6984C0.3375 12.6984 0 13.0359 0 13.4484V16.1484C0 16.5609 0.3375 16.8984 0.75 16.8984H3.45C3.8625 16.8984 4.2 16.5609 4.2 16.1484V13.4484C4.2 13.0359 3.8625 12.6984 3.45 12.6984H0.75ZM0 19.05V21.75C0 22.1625 0.3375 22.5 0.75 22.5H3.45C3.8625 22.5 4.2 22.1625 4.2 21.75V19.05C4.2 18.6375 3.8625 18.3 3.45 18.3H0.75C0.3375 18.3 0 18.6375 0 19.05ZM5.60156 2.25V4.95C5.60156 5.3625 5.93906 5.7 6.35156 5.7H9.05156C9.46406 5.7 9.80156 5.3625 9.80156 4.95V2.25C9.80156 1.8375 9.46406 1.5 9.05156 1.5H6.35156C5.93906 1.5 5.60156 1.8375 5.60156 2.25ZM5.60156 7.85156V10.5516C5.60156 10.9641 5.93906 11.3016 6.35156 11.3016H9.05156C9.46406 11.3016 9.80156 10.9641 9.80156 10.5516V7.85156C9.80156 7.43906 9.46406 7.10156 9.05156 7.10156H6.35156C5.93906 7.10156 5.60156 7.43906 5.60156 7.85156ZM6.35156 12.7031C5.93906 12.7031 5.60156 13.0406 5.60156 13.4531V16.1531C5.60156 16.5656 5.93906 16.9031 6.35156 16.9031H9.05156C9.46406 16.9031 9.80156 16.5656 9.80156 16.1531V13.4484C9.80156 13.0359 9.46406 12.6984 9.05156 12.6984H6.35156V12.7031ZM5.60156 19.0547V21.75C5.60156 22.1625 5.93906 22.5 6.35156 22.5H9.05156C9.46406 22.5 9.80156 22.1625 9.80156 21.75V19.05C9.80156 18.6375 9.46406 18.3 9.05156 18.3H6.35156C5.93906 18.3 5.60156 18.6375 5.60156 19.05V19.0547ZM11.9484 1.5C11.5359 1.5 11.1984 1.8375 11.1984 2.25V4.95C11.1984 5.3625 11.5359 5.7 11.9484 5.7H14.6484C15.0609 5.7 15.3984 5.3625 15.3984 4.95V2.25C15.3984 1.8375 15.0609 1.5 14.6484 1.5H11.9484ZM11.9484 7.10156C11.5359 7.10156 11.1984 7.43906 11.1984 7.85156V10.5516C11.1984 10.9641 11.5359 11.3016 11.9484 11.3016H14.6484C15.0609 11.3016 15.3984 10.9641 15.3984 10.5516V7.85156C15.3984 7.43906 15.0609 7.10156 14.6484 7.10156H11.9484ZM11.1984 13.4531V16.1531C11.1984 16.5656 11.5359 16.9031 11.9484 16.9031H14.6484C15.0609 16.9031 15.3984 16.5656 15.3984 16.1531V13.4484C15.3984 13.0359 15.0609 12.6984 14.6484 12.6984H11.9484C11.5359 12.6984 11.1984 13.0359 11.1984 13.4484V13.4531ZM11.9484 18.3047C11.5359 18.3047 11.1984 18.6422 11.1984 19.0547V21.75C11.1984 22.1625 11.5359 22.5 11.9484 22.5H14.6484C15.0609 22.5 15.3984 22.1625 15.3984 21.75V19.05C15.3984 18.6375 15.0609 18.3 14.6484 18.3H11.9484V18.3047ZM16.8 2.25V4.95C16.8 5.3625 17.1375 5.7 17.55 5.7H20.25C20.6625 5.7 21 5.3625 21 4.95V2.25C21 1.8375 20.6625 1.5 20.25 1.5H17.55C17.1375 1.5 16.8 1.8375 16.8 2.25ZM16.8 7.85156V10.5516C16.8 10.9641 17.1375 11.3016 17.55 11.3016H20.25C20.6625 11.3016 21 10.9641 21 10.5516V7.85156C21 7.43906 20.6625 7.10156 20.25 7.10156H17.55C17.1375 7.10156 16.8 7.43906 16.8 7.85156ZM17.55 12.7031C17.1375 12.7031 16.8 13.0406 16.8 13.4531V16.1531C16.8 16.5656 17.1375 16.9031 17.55 16.9031H20.25C20.6625 16.9031 21 16.5656 21 16.1531V13.4484C21 13.0359 20.6625 12.6984 20.25 12.6984H17.55V12.7031ZM16.8 19.0547V21.75C16.8 22.1625 17.1375 22.5 17.55 22.5H20.25C20.6625 22.5 21 22.1625 21 21.75V19.05C21 18.6375 20.6625 18.3 20.25 18.3H17.55C17.1375 18.3 16.8 18.6375 16.8 19.05V19.0547Z" fill="#575267"/>
</svg>
