<svg width="24" height="24" viewBox="0 0 24 24" fill="none" xmlns="http://www.w3.org/2000/svg">
<path d="M9.34933 14.8577C5.38553 14.8577 2 15.47 2 17.9173C2 20.3665 5.364 20.9999 9.34933 20.9999C13.3131 20.9999 16.6987 20.3876 16.6987 17.9403C16.6987 15.4911 13.3347 14.8577 9.34933 14.8577Z" fill="#68778D"/>
<path opacity="0.2" d="M9.34935 12.5248C12.049 12.5248 14.2124 10.4062 14.2124 7.76241C14.2124 5.11865 12.049 3 9.34935 3C6.65072 3 4.48633 5.11865 4.48633 7.76241C4.48633 10.4062 6.65072 12.5248 9.34935 12.5248Z" fill="#68778D"/>
<path opacity="0.2" d="M16.1734 7.84873C16.1734 9.19505 15.7605 10.4513 15.0364 11.4948C14.9611 11.6021 15.0276 11.7468 15.1587 11.7698C15.3407 11.7995 15.5276 11.8177 15.7184 11.8216C17.6167 11.8704 19.3202 10.6736 19.7908 8.87116C20.4885 6.19674 18.4415 3.79541 15.8339 3.79541C15.5511 3.79541 15.2801 3.82416 15.0159 3.87686C14.9797 3.88453 14.9405 3.90177 14.921 3.93244C14.8955 3.97172 14.9141 4.02251 14.9395 4.05605C15.7233 5.13214 16.1734 6.44205 16.1734 7.84873Z" fill="#68778D"/>
<path d="M21.7791 15.1692C21.4318 14.4439 20.5932 13.9465 19.3173 13.7022C18.7155 13.5585 17.0854 13.3544 15.5697 13.3831C15.5472 13.386 15.5345 13.4013 15.5325 13.4109C15.5296 13.4262 15.5365 13.4492 15.5658 13.4655C16.2664 13.8047 18.9738 15.2804 18.6333 18.3927C18.6187 18.5288 18.7292 18.6438 18.8672 18.6246C19.5335 18.5317 21.2478 18.1704 21.7791 17.0474C22.0737 16.4533 22.0737 15.7634 21.7791 15.1692Z" fill="#68778D"/>
</svg>
