<svg width="24" height="24" viewBox="0 0 24 24" fill="none" xmlns="http://www.w3.org/2000/svg">
<path opacity="0.2" d="M16.191 2H7.81C4.77 2 3 3.78 3 6.83V17.16C3 20.26 4.77 22 7.81 22H16.191C19.28 22 21 20.26 21 17.16V6.83C21 3.78 19.28 2 16.191 2Z" fill="#68778D"/>
<path fill-rule="evenodd" clip-rule="evenodd" d="M8.07993 6.6499V6.6599C7.64893 6.6599 7.29993 7.0099 7.29993 7.4399C7.29993 7.8699 7.64893 8.2199 8.07993 8.2199H11.0689C11.4999 8.2199 11.8499 7.8699 11.8499 7.4289C11.8499 6.9999 11.4999 6.6499 11.0689 6.6499H8.07993ZM15.9199 12.7399H8.07993C7.64893 12.7399 7.29993 12.3899 7.29993 11.9599C7.29993 11.5299 7.64893 11.1789 8.07993 11.1789H15.9199C16.3499 11.1789 16.6999 11.5299 16.6999 11.9599C16.6999 12.3899 16.3499 12.7399 15.9199 12.7399ZM15.92 17.3099H8.07996C7.77996 17.3499 7.48996 17.1999 7.32996 16.9499C7.16996 16.6899 7.16996 16.3599 7.32996 16.1099C7.48996 15.8499 7.77996 15.7099 8.07996 15.7399H15.92C16.319 15.7799 16.62 16.1199 16.62 16.5299C16.62 16.9289 16.319 17.2699 15.92 17.3099Z" fill="#68778D"/>
</svg>
