<svg width="24" height="24" viewBox="0 0 24 24" fill="none" xmlns="http://www.w3.org/2000/svg">
<path d="M12.012 14.8299C10.4075 14.8299 9.10962 13.5799 9.10962 12.0099C9.10962 10.4399 10.4075 9.17993 12.012 9.17993C13.6164 9.17993 14.8837 10.4399 14.8837 12.0099C14.8837 13.5799 13.6164 14.8299 12.012 14.8299Z" fill="#68778D"/>
<path opacity="0.2" d="M21.23 14.37C21.0358 14.07 20.7599 13.77 20.4022 13.58C20.1161 13.44 19.9321 13.21 19.7686 12.94C19.2474 12.08 19.554 10.95 20.4227 10.44C21.4446 9.87 21.7716 8.6 21.1789 7.61L20.4942 6.43C19.9117 5.44 18.6342 5.09 17.6225 5.67C16.7232 6.15 15.5684 5.83 15.0472 4.98C14.8837 4.7 14.7917 4.4 14.8121 4.1C14.8428 3.71 14.7201 3.34 14.5362 3.04C14.1581 2.42 13.4734 2 12.7171 2H11.2761C10.5301 2.02 9.8454 2.42 9.46728 3.04C9.27311 3.34 9.16069 3.71 9.18113 4.1C9.20157 4.4 9.10959 4.7 8.94608 4.98C8.42488 5.83 7.27007 6.15 6.38097 5.67C5.35901 5.09 4.09178 5.44 3.49905 6.43L2.81434 7.61C2.23182 8.6 2.55885 9.87 3.57059 10.44C4.43925 10.95 4.74584 12.08 4.23486 12.94C4.06112 13.21 3.87717 13.44 3.59102 13.58C3.24356 13.77 2.93697 14.07 2.77346 14.37C2.39533 14.99 2.41577 15.77 2.7939 16.42L3.49905 17.62C3.87717 18.26 4.58232 18.66 5.31813 18.66C5.6656 18.66 6.07438 18.56 6.40141 18.36C6.6569 18.19 6.96348 18.13 7.30073 18.13C8.31247 18.13 9.16069 18.96 9.18113 19.95C9.18113 21.1 10.1213 22 11.3068 22H12.6967C13.8719 22 14.8121 21.1 14.8121 19.95C14.8428 18.96 15.691 18.13 16.7027 18.13C17.0298 18.13 17.3364 18.19 17.6021 18.36C17.9291 18.56 18.3277 18.66 18.6853 18.66C19.4109 18.66 20.1161 18.26 20.4942 17.62L21.2096 16.42C21.5775 15.75 21.6081 14.99 21.23 14.37Z" fill="#68778D"/>
</svg>
