<svg width="29" height="25" viewBox="0 0 29 25" fill="none" xmlns="http://www.w3.org/2000/svg">
<path d="M14.7244 0C13.7603 0 12.8841 0.489948 12.3804 1.31033L0.405352 20.815C-0.387289 22.1059 0.0184113 23.8011 1.30929 24.5935C1.74238 24.8596 2.23843 25.0002 2.74426 25.0002C3.70804 25.0002 4.58447 24.5103 5.08823 23.6898L17.0632 4.18545C17.4473 3.55969 17.5646 2.82241 17.394 2.10872C17.223 1.39457 16.7848 0.790569 16.1591 0.406506C15.7264 0.140643 15.2302 0 14.7244 0V0Z" fill="#1956FB"/>
<path d="M20.5168 8.94482C19.5529 8.94482 18.6765 9.43443 18.1726 10.2552L11.6896 20.8151C11.3054 21.4404 11.1882 22.1777 11.3589 22.8916C11.5296 23.6053 11.9681 24.21 12.5934 24.5936C13.0264 24.8597 13.5227 25.0003 14.0281 25.0003C14.9923 25.0003 15.8685 24.5104 16.3723 23.6899L22.8553 13.1298C23.2393 12.5046 23.357 11.7673 23.1862 11.0537C23.0152 10.3396 22.5767 9.73516 21.9513 9.35145C21.5185 9.08547 21.0224 8.94482 20.5167 8.94482H20.5168Z" fill="#1956FB"/>
<path d="M24.6959 17.7603C25.6053 17.7603 26.4326 18.2227 26.9081 18.9973L28.0735 20.8957C28.8218 22.1142 28.4391 23.714 27.2205 24.4621C26.8118 24.713 26.3434 24.8456 25.8668 24.8456C24.9567 24.8456 24.1297 24.3831 23.6543 23.6088L22.4886 21.7101C22.1262 21.1198 22.0155 20.4237 22.1767 19.7504C22.3378 19.0768 22.7516 18.5062 23.342 18.1437C23.7508 17.8928 24.2188 17.7603 24.6959 17.7603Z" fill="#33D3FB"/>
</svg>
