<svg width="124" height="25" viewBox="0 0 124 25" fill="none" xmlns="http://www.w3.org/2000/svg">
<g clip-path="url(#clip0_824_14618)">
<path d="M39.3223 21.8622L45.7091 3.1377H51.6599L58.2264 21.8622H54.4814L52.7629 16.8862H44.6062L42.9645 21.8622H39.3223ZM116.008 21.8622C114.469 21.8622 113.243 21.4688 112.328 20.6822C111.413 19.8956 110.955 18.7927 110.955 17.3733C110.955 15.8514 111.507 14.7271 112.61 14.0003C113.713 13.2736 115.196 12.9103 117.06 12.9103H119.907V12.782C119.907 11.1916 119.103 10.3965 117.496 10.3965C117.069 10.3965 116.556 10.4051 115.957 10.4221C115.359 10.4393 114.756 10.4607 114.149 10.4863C113.542 10.512 112.999 10.5419 112.52 10.5761V7.54941C113.101 7.49808 113.798 7.45538 114.61 7.42108C115.423 7.3869 116.171 7.36975 116.855 7.36975C118.992 7.36975 120.604 7.80158 121.69 8.665C122.776 9.52866 123.319 10.9266 123.319 12.8587V21.5029H120.497V18.8352C119.865 20.8532 118.368 21.8621 116.008 21.8621L116.008 21.8622ZM117.009 19.3228C117.488 19.3228 117.941 19.2329 118.368 19.0533C118.796 18.8739 119.15 18.566 119.433 18.1298C119.715 17.694 119.873 17.0997 119.907 16.3473V15.0392H117.009C116.188 15.0392 115.56 15.2401 115.123 15.642C114.687 16.0438 114.469 16.561 114.469 17.1938C114.469 17.8435 114.687 18.361 115.123 18.7456C115.56 19.1305 116.188 19.3228 117.009 19.3228ZM107.27 21.8622C105.988 21.8622 104.927 21.6954 104.089 21.362C103.252 21.0284 102.632 20.4685 102.23 19.6819C101.828 18.8953 101.627 17.8181 101.627 16.45V10.371H99.421V7.75474H101.627L101.653 3.83032H104.987L104.962 7.75474H109.271V10.371H104.962V16.681C104.962 17.3649 105.145 17.8907 105.513 18.2584C105.881 18.626 106.407 18.8099 107.091 18.8099H109.271V21.8623H107.27V21.8622ZM91.7087 21.8622C90.5116 21.8622 89.4643 21.657 88.5666 21.2465C87.6688 20.8361 86.925 20.2847 86.335 19.5921C85.7451 18.8996 85.3005 18.1257 85.0012 17.2708C84.7021 16.4158 84.5524 15.5437 84.5524 14.6545V14.1672C84.5524 13.2438 84.7021 12.3545 85.0012 11.4996C85.3005 10.6446 85.7451 9.87508 86.335 9.1912C86.925 8.50721 87.656 7.96421 88.5281 7.5623C89.4003 7.16052 90.4092 6.95957 91.5548 6.95957C93.0597 6.95957 94.3165 7.28873 95.3254 7.94706C96.3344 8.60538 97.0995 9.46904 97.621 10.5377C98.1426 11.6063 98.4033 12.7564 98.4033 13.9876V15.27H87.9382C88.0579 16.3644 88.4213 17.2451 89.0283 17.912C89.6353 18.5789 90.5288 18.9124 91.7087 18.9124C92.5637 18.9124 93.269 18.737 93.8248 18.3864C94.3805 18.0359 94.7354 17.6041 94.8893 17.0911H98.1725C97.8646 18.5276 97.1379 19.6818 95.9923 20.5539C94.8466 21.4261 93.4187 21.8621 91.7087 21.8621V21.8622ZM91.5548 9.90927C90.5459 9.90927 89.7422 10.1915 89.1438 10.7558C88.5454 11.3201 88.1605 12.0982 87.9895 13.0898H94.9919C94.8551 12.0981 94.5003 11.3201 93.9274 10.7558C93.3545 10.1915 92.5637 9.90927 91.5548 9.90927ZM60.5522 21.8622V7.93417H63.3737V11.3456C63.955 8.78067 65.4685 7.49808 67.9137 7.49808H68.0676C70.2735 7.49808 71.727 8.5498 72.4281 10.653C73.1121 8.5498 74.5656 7.49808 76.7886 7.49808H76.9425C78.5327 7.49808 79.7426 8.04535 80.5719 9.13976C81.4014 10.2341 81.8159 11.8243 81.8159 13.9106V21.8621H78.2505V13.5771C78.2505 12.705 78.0283 12.0082 77.5835 11.4867C77.1389 10.9651 76.5063 10.7044 75.6856 10.7044C74.8477 10.7044 74.1851 10.9736 73.6976 11.5124C73.2103 12.0509 72.9666 12.7735 72.9666 13.6797V21.8621H69.4013V13.5771C69.4013 12.705 69.1789 12.0082 68.7343 11.4867C68.2896 10.9651 67.6569 10.7044 66.8361 10.7044C65.9982 10.7044 65.3357 10.9736 64.8482 11.5124C64.3609 12.0509 64.1172 12.7735 64.1172 13.6797V21.8621H60.5518L60.5522 21.8622ZM45.6321 13.808H51.7111L49.1205 6.18994H48.1715L45.6321 13.808Z" fill="#101036"/>
<path d="M14.7244 0C13.7603 0 12.8841 0.489948 12.3804 1.31033L0.405352 20.815C-0.387289 22.1059 0.0184113 23.8011 1.30929 24.5935C1.74238 24.8596 2.23843 25.0002 2.74426 25.0002C3.70804 25.0002 4.58447 24.5103 5.08823 23.6898L17.0632 4.18545C17.4473 3.55969 17.5646 2.82241 17.394 2.10872C17.223 1.39457 16.7848 0.790569 16.1591 0.406506C15.7264 0.140643 15.2302 0 14.7244 0V0Z" fill="#1956FB"/>
<path d="M20.5166 8.94482C19.5527 8.94482 18.6763 9.43443 18.1724 10.2552L11.6893 20.8151C11.3052 21.4404 11.188 22.1777 11.3587 22.8916C11.5294 23.6053 11.9679 24.21 12.5932 24.5936C13.0261 24.8597 13.5224 25.0003 14.0279 25.0003C14.992 25.0003 15.8682 24.5104 16.3721 23.6899L22.855 13.1298C23.2391 12.5046 23.3567 11.7673 23.1859 11.0537C23.015 10.3396 22.5765 9.73516 21.9511 9.35145C21.5182 9.08547 21.0222 8.94482 20.5165 8.94482H20.5166Z" fill="#1956FB"/>
<path d="M24.6959 17.7603C25.6053 17.7603 26.4326 18.2227 26.9081 18.9973L28.0735 20.8957C28.8218 22.1142 28.4391 23.714 27.2205 24.4621C26.8118 24.713 26.3434 24.8456 25.8668 24.8456C24.9567 24.8456 24.1297 24.3831 23.6543 23.6088L22.4886 21.7101C22.1262 21.1198 22.0155 20.4237 22.1767 19.7504C22.3378 19.0768 22.7516 18.5062 23.342 18.1437C23.7508 17.8928 24.2188 17.7603 24.6959 17.7603Z" fill="#33D3FB"/>
</g>
<defs>
<clipPath id="clip0_824_14618">
<rect width="123.319" height="25" fill="white"/>
</clipPath>
</defs>
</svg>
