<svg width="20" height="20" viewBox="0 0 20 20" fill="none" xmlns="http://www.w3.org/2000/svg">
<path opacity="0.2" d="M14.3345 -0.000244141H5.66549C2.27649 -0.000244141 0.000488281 2.37776 0.000488281 5.91676V14.0838C0.000488281 17.6218 2.27649 19.9998 5.66549 19.9998H14.3335C17.7225 19.9998 20.0005 17.6218 20.0005 14.0838V5.91676C20.0005 2.37776 17.7235 -0.000244141 14.3345 -0.000244141" fill="#68778D"/>
<path fill-rule="evenodd" clip-rule="evenodd" d="M9.31437 9.24844H15.0144C15.4244 9.24844 15.7644 9.58844 15.7644 9.99844V11.8484C15.7644 12.2684 15.4244 12.5984 15.0144 12.5984C14.5944 12.5984 14.2644 12.2684 14.2644 11.8484V10.7484H12.9344V11.8484C12.9344 12.2684 12.5944 12.5984 12.1844 12.5984C11.7644 12.5984 11.4344 12.2684 11.4344 11.8484V10.7484H9.31437C8.99437 11.8184 8.01437 12.5984 6.84437 12.5984C5.40437 12.5984 4.23438 11.4384 4.23438 9.99844C4.23438 8.56844 5.40437 7.39844 6.84437 7.39844C8.01437 7.39844 8.99437 8.17844 9.31437 9.24844ZM5.73438 9.99844C5.73438 10.6084 6.23438 11.0984 6.84438 11.0984C7.44438 11.0984 7.94438 10.6084 7.94438 9.99844C7.94438 9.38844 7.44438 8.89844 6.84438 8.89844C6.23438 8.89844 5.73438 9.38844 5.73438 9.99844Z" fill="#68778D"/>
</svg>
